#N canvas -2 75 1009 536 10;
#X obj 100 100 cnv 15 250 120 empty empty empty 20 12 0 14 -86277 -66577
0;
#X obj 46 363 hid;
#X msg 110 342 print;
#X msg 110 321 refresh;
#X obj 116 129 hradio 13 1 0 17 empty empty empty 0 -8 0 10 -262144
-1 -1 13;
#X floatatom 116 150 5 0 0 0 - - -;
#X msg 46 300 open \$1;
#X obj 116 107 tgl 15 0 empty empty empty 17 7 0 10 -262144 -1 -1 1
1;
#N canvas 0 84 1007 523 route_keys 0;
#X obj 85 63 route key;
#X obj 85 33 inlet;
#X obj 112 338 select 1;
#X obj 127 358 select 1;
#X obj 147 378 select 1;
#X obj 162 398 select 1;
#X obj 182 418 select 1;
#X obj 197 438 select 1;
#X obj 217 458 select 1;
#X obj 235 338 select 1;
#X obj 250 358 select 1;
#X obj 270 378 select 1;
#X obj 285 398 select 1;
#X obj 305 418 select 1;
#X obj 320 438 select 1;
#X obj 340 458 select 1;
#X obj 377 338 select 1;
#X obj 397 358 select 1;
#X obj 410 378 select 1;
#X obj 430 398 select 1;
#X obj 460 338 select 1;
#X obj 480 358 select 1;
#X obj 85 132 change;
#X obj 105 152 change;
#X obj 128 172 change;
#X obj 148 192 change;
#X obj 168 212 change;
#X obj 191 232 change;
#X obj 211 252 change;
#X obj 228 132 change;
#X obj 248 152 change;
#X obj 271 172 change;
#X obj 291 192 change;
#X obj 311 212 change;
#X obj 334 232 change;
#X obj 354 252 change;
#X obj 372 132 change;
#X obj 392 152 change;
#X obj 415 172 change;
#X obj 435 192 change;
#X obj 454 232 change;
#X obj 474 252 change;
#X obj 257 388 print;
#X obj 85 84 route key_n key_b key_v key_s key_l key_k key_j key_f
key_d key_m key_y key_t key_h key_g key_o key_i key_u key_r key_e key_c
;
#X obj 110 502 s ctl_recnumdown0;
#X obj 145 542 s ctl_pause0;
#X obj 162 562 s ctl_play0;
#X obj 180 582 s ctl_rec0;
#X obj 197 602 s ctl_rec1;
#X obj 215 622 s ctl_play1;
#X obj 232 502 s ctl_pause1;
#X obj 249 522 s ctl_recnumdown1;
#X obj 267 542 s ctl_recnumup1;
#X obj 284 562 s ctl_play00;
#X obj 302 582 s ctl_play01;
#X obj 319 602 s ctl_play02;
#X obj 337 622 s ctl_play03;
#X obj 367 502 s ctl_clear0;
#X obj 385 522 s ctl_clear1;
#X obj 402 542 s ctl_play10;
#X obj 420 562 s ctl_play11;
#X obj 532 502 s ctl_play12;
#X obj 550 522 s ctl_play13;
#X obj 127 522 s ctl_recnumup0;
#X connect 0 0 43 0;
#X connect 1 0 0 0;
#X connect 2 0 44 0;
#X connect 3 0 63 0;
#X connect 4 0 45 0;
#X connect 5 0 46 0;
#X connect 6 0 47 0;
#X connect 7 0 48 0;
#X connect 8 0 49 0;
#X connect 9 0 50 0;
#X connect 10 0 42 0;
#X connect 10 0 51 0;
#X connect 11 0 52 0;
#X connect 12 0 53 0;
#X connect 13 0 54 0;
#X connect 14 0 55 0;
#X connect 15 0 56 0;
#X connect 16 0 57 0;
#X connect 17 0 58 0;
#X connect 18 0 59 0;
#X connect 19 0 60 0;
#X connect 20 0 61 0;
#X connect 21 0 62 0;
#X connect 22 0 2 0;
#X connect 23 0 3 0;
#X connect 24 0 4 0;
#X connect 25 0 5 0;
#X connect 26 0 6 0;
#X connect 27 0 7 0;
#X connect 28 0 8 0;
#X connect 29 0 9 0;
#X connect 30 0 10 0;
#X connect 31 0 11 0;
#X connect 32 0 12 0;
#X connect 33 0 13 0;
#X connect 34 0 14 0;
#X connect 35 0 15 0;
#X connect 36 0 16 0;
#X connect 37 0 17 0;
#X connect 38 0 18 0;
#X connect 39 0 19 0;
#X connect 40 0 20 0;
#X connect 41 0 21 0;
#X connect 43 0 22 0;
#X connect 43 1 23 0;
#X connect 43 2 24 0;
#X connect 43 3 25 0;
#X connect 43 4 26 0;
#X connect 43 5 27 0;
#X connect 43 6 28 0;
#X connect 43 7 29 0;
#X connect 43 8 30 0;
#X connect 43 9 31 0;
#X connect 43 10 32 0;
#X connect 43 11 33 0;
#X connect 43 12 34 0;
#X connect 43 13 35 0;
#X connect 43 14 36 0;
#X connect 43 15 37 0;
#X connect 43 16 38 0;
#X connect 43 17 39 0;
#X connect 43 18 40 0;
#X connect 43 19 41 0;
#X restore 46 389 pd route_keys;
#X obj 313 302 print;
#X obj 118 170 bng 15 250 50 0 empty empty empty 17 7 0 10 -262144
-1 -1;
#X obj 118 193 bng 15 250 50 0 empty empty empty 17 7 0 10 -262144
-1 -1;
#X text 149 170 refresh;
#X text 149 191 print;
#X text 149 106 ON/OFF;
#N canvas 0 123 450 300 ctl_recnumber0 0;
#X obj 153 89 + 1;
#X obj 125 8 t f f;
#X obj 153 64 int;
#X obj 3 64 int;
#X obj 3 89 - 1;
#X obj 125 -43 r rec_number0;
#X obj 3 38 r ctl_recnumdown0;
#X obj 153 38 r ctl_recnumup0;
#X obj 44 130 s ctl_recnumber0;
#X obj 314 16 print;
#X obj 207 148 print;
#X connect 0 0 8 0;
#X connect 0 0 10 0;
#X connect 1 0 3 1;
#X connect 1 1 2 1;
#X connect 2 0 0 0;
#X connect 3 0 4 0;
#X connect 4 0 8 0;
#X connect 4 0 10 0;
#X connect 5 0 1 0;
#X connect 5 0 9 0;
#X connect 6 0 3 0;
#X connect 7 0 2 0;
#X restore 553 377 pd ctl_recnumber0;
#N canvas 0 105 450 300 ctl_recnumber1 0;
#X obj 153 89 + 1;
#X obj 125 8 t f f;
#X obj 153 64 int;
#X obj 3 64 int;
#X obj 3 89 - 1;
#X obj 125 -17 r rec_number1;
#X obj 153 38 r ctl_recnumup1;
#X obj 3 38 r ctl_recnumdown1;
#X obj 44 130 s ctl_recnumber1;
#X connect 0 0 8 0;
#X connect 1 0 3 1;
#X connect 1 1 2 1;
#X connect 2 0 0 0;
#X connect 3 0 4 0;
#X connect 4 0 8 0;
#X connect 5 0 1 0;
#X connect 6 0 2 0;
#X connect 7 0 3 0;
#X restore 553 407 pd ctl_recnumber1;
#X connect 1 0 8 0;
#X connect 1 0 9 0;
#X connect 2 0 1 0;
#X connect 3 0 1 0;
#X connect 4 0 5 0;
#X connect 5 0 6 0;
#X connect 6 0 1 0;
#X connect 7 0 1 0;
#X connect 10 0 3 0;
#X connect 11 0 2 0;
#X coords 0 -1 1 1 250 120 1 100 100;
