#N canvas 639 45 1905 1001 10;
#X obj 100 101 cnv 15 240 100 empty empty sampler 20 12 0 14 -1 -262144
0;
#X obj 192 107 tgl 15 0 empty ctl_rec0 empty 17 7 0 10 -262144 -1 -1
0 1;
#X obj 192 126 tgl 15 0 empty ctl_play0 empty 17 7 0 10 -262144 -1
-1 0 1;
#X obj 192 147 tgl 15 0 empty ctl_pause0 empty 17 7 0 10 -262144 -1
-1 0 1;
#X obj 192 167 tgl 15 0 empty ctl_clear0 empty 17 7 0 10 -262144 -1
-1 1 1;
#X obj 22 59 tgl 15 0 empty empty empty 17 7 0 10 -258113 -1 -1 0 1
;
#X obj 43 59 tgl 15 0 empty empty empty 17 7 0 10 -258113 -1 -1 0 1
;
#X obj 22 78 tgl 15 0 empty empty empty 17 7 0 10 -258113 -1 -1 0 1
;
#X obj 43 78 tgl 15 0 empty empty empty 17 7 0 10 -258113 -1 -1 0 1
;
#X obj 118 163 tgl 15 0 empty ctl_play00 empty 17 7 0 10 -4034 -1 -1
1 1;
#X obj 139 163 tgl 15 0 empty ctl_play01 empty 17 7 0 10 -4034 -1 -1
1 1;
#X obj 118 182 tgl 15 0 empty ctl_play02 empty 17 7 0 10 -4034 -1 -1
1 1;
#X obj 139 182 tgl 15 0 empty ctl_play03 empty 17 7 0 10 -4034 -1 -1
1 1;
#X obj 20 -66 r sampler_record_num;
#X obj 15 -33 route 0 1 2 3;
#X obj 109 142 hradio 15 1 0 4 rec_number0 r_sampler_0_record_num rec_num
0 -8 0 10 -258113 -1 -262144 0;
#X obj 118 382 s osc;
#X obj 194 26 s osc;
#X obj 280 163 tgl 15 0 empty ctl_play10 empty 17 7 0 10 -4034 -1 -1
1 1;
#X obj 301 163 tgl 15 0 empty ctl_play11 empty 17 7 0 10 -4034 -1 -1
1 1;
#X obj 280 182 tgl 15 0 empty ctl_play12 empty 17 7 0 10 -4034 -1 -1
1 1;
#X obj 301 182 tgl 15 0 empty ctl_play13 empty 17 7 0 10 -4034 -1 -1
0 1;
#X obj 271 142 hradio 15 1 0 4 rec_number1 r_sampler_1_record_num rec_num
0 -8 0 10 -258113 -1 -262144 2;
#X obj 400 382 s osc;
#X msg 16 264 send /sharedsampler/0/record/\$1;
#X msg 118 295 send /sharedsampler/0/playbuffer/0 \$1;
#X msg 128 315 send /sharedsampler/0/playbuffer/1 \$1;
#X msg 138 335 send /sharedsampler/0/playbuffer/2 \$1;
#X msg 148 355 send /sharedsampler/0/playbuffer/3 \$1;
#X msg 388 264 send /sharedsampler/1/record/\$1;
#X msg 380 295 send /sharedsampler/1/playbuffer/0 \$1;
#X msg 390 315 send /sharedsampler/1/playbuffer/1 \$1;
#X msg 400 335 send /sharedsampler/1/playbuffer/2 \$1;
#X msg 410 355 send /sharedsampler/1/playbuffer/3 \$1;
#X obj 242 107 tgl 15 0 empty ctl_rec1 empty 17 7 0 10 -262144 -1 -1
0 1;
#X obj 242 126 tgl 15 0 empty ctl_play1 empty 17 7 0 10 -262144 -1
-1 0 1;
#X obj 242 147 tgl 15 0 empty ctl_pause1 empty 17 7 0 10 -262144 -1
-1 0 1;
#X obj 242 167 tgl 15 0 empty ctl_clear1 empty 17 7 0 10 -262144 -1
-1 1 1;
#X obj 464 26 s osc;
#X msg 195 -91 send /sharedsampler/0/clear \$1;
#X msg 195 -71 send /sharedsampler/0/pause \$1;
#X msg 195 -51 send /sharedsampler/0/play \$1;
#X msg 463 -71 send /sharedsampler/1/pause \$1;
#X msg 463 -91 send /sharedsampler/1/clear \$1;
#X msg 463 -51 send /sharedsampler/1/play \$1;
#X obj -15 118 r ctl_recnumber0;
#X obj 384 96 r ctl_recnumber1;
#X obj 70 535 gate 4;
#X msg 101 559 send /sharedsampler/0/record/3 \$1;
#X obj 43 490 + 1;
#X msg 92 583 send /sharedsampler/0/record/2 \$1;
#X msg 81 609 send /sharedsampler/0/record/1 \$1;
#X msg 70 632 send /sharedsampler/0/record/0 \$1;
#X obj 382 536 gate 4;
#X obj 355 490 + 1;
#X msg 413 560 send /sharedsampler/1/record/3 \$1;
#X msg 404 584 send /sharedsampler/1/record/2 \$1;
#X msg 393 610 send /sharedsampler/1/record/1 \$1;
#X msg 382 633 send /sharedsampler/1/record/0 \$1;
#X obj 317 112 tgl 15 0 ctl_autoplay empty autoplay -27 -7 0 10 -262144
-258113 -262144 1 1;
#X obj 403 674 t b a;
#X obj 430 697 s osc;
#X obj 297 665 r ctl_autoplay;
#X obj 403 724 spigot 0;
#X msg 399 815 1;
#X obj 354 861 i;
#X obj 346 887 gate 4;
#X obj 360 793 t b b b;
#X obj 451 538 - 1;
#X obj 141 536 - 1;
#X obj 69 674 t b a;
#X obj 96 697 s osc;
#X obj 69 722 spigot 0;
#X obj -8 964 s ctl_play00;
#X msg 67 815 1;
#X obj 30 860 i;
#X obj 12 887 gate 4;
#X obj 28 793 t b b b;
#X obj 93 755 spigot 0;
#X obj 423 754 spigot 0;
#X obj 67 836 s ctl_play0;
#X obj 399 836 s ctl_play1;
#X obj 12 921 t b b;
#X obj 23 991 t b b;
#X obj 34 1059 t b b;
#X obj 45 1129 t b b;
#X obj 345 920 t b b;
#X obj 356 990 t b b;
#X obj 367 1058 t b b;
#X obj 378 1128 t b b;
#X obj 201 918 bng 15 250 50 0 empty empty empty 17 7 0 10 -262144
-1 -1;
#X obj 43 513 t f f;
#X obj 103 513 t f f;
#X obj 355 513 t f f;
#X obj 415 513 t f f;
#X obj 16 239 t f f;
#X obj 385 238 t f f;
#X obj 263 -13 r init_bang;
#X obj 264 14 t b b;
#X obj 294 112 bng 15 250 50 0 ctl_init_textfile empty empty 17 7 0
10 -159808 -1 -1;
#X msg -8 947 1;
#X msg 9 1017 1;
#X obj 9 1034 s ctl_play01;
#X msg 19 1088 1;
#X obj 19 1105 s ctl_play02;
#X msg 22 1157 1;
#X obj 22 1174 s ctl_play03;
#X msg 332 947 1;
#X obj 332 964 s ctl_play10;
#X msg 342 1017 1;
#X obj 342 1034 s ctl_play11;
#X msg 342 1087 1;
#X msg 352 1157 1;
#X obj 342 1104 s ctl_play12;
#X obj 352 1175 s ctl_play13;
#X obj 39 943 surface_selector samp00.txt 0 0;
#X obj 50 1013 surface_selector samp01.txt 0 1;
#X obj 61 1081 surface_selector samp02.txt 0 2;
#X obj 72 1151 surface_selector samp03.txt 0 3;
#X obj 372 942 surface_selector samp10.txt 1 0;
#X obj 383 1012 surface_selector samp11.txt 1 1;
#X obj 394 1080 surface_selector samp12.txt 1 2;
#X obj 405 1150 surface_selector samp13.txt 1 3;
#X connect 1 0 92 0;
#X connect 2 0 41 0;
#X connect 3 0 40 0;
#X connect 4 0 39 0;
#X connect 9 0 25 0;
#X connect 10 0 26 0;
#X connect 11 0 27 0;
#X connect 12 0 28 0;
#X connect 13 0 14 0;
#X connect 14 0 5 0;
#X connect 14 1 6 0;
#X connect 14 2 7 0;
#X connect 14 3 8 0;
#X connect 15 0 95 0;
#X connect 18 0 30 0;
#X connect 19 0 31 0;
#X connect 20 0 32 0;
#X connect 21 0 33 0;
#X connect 22 0 96 0;
#X connect 24 0 16 0;
#X connect 25 0 16 0;
#X connect 26 0 16 0;
#X connect 27 0 16 0;
#X connect 28 0 16 0;
#X connect 29 0 23 0;
#X connect 30 0 23 0;
#X connect 31 0 23 0;
#X connect 32 0 23 0;
#X connect 33 0 23 0;
#X connect 34 0 94 0;
#X connect 35 0 44 0;
#X connect 36 0 42 0;
#X connect 37 0 43 0;
#X connect 39 0 17 0;
#X connect 40 0 17 0;
#X connect 41 0 17 0;
#X connect 42 0 38 0;
#X connect 43 0 38 0;
#X connect 44 0 38 0;
#X connect 45 0 15 0;
#X connect 46 0 22 0;
#X connect 47 0 52 0;
#X connect 47 1 51 0;
#X connect 47 2 50 0;
#X connect 47 3 48 0;
#X connect 48 0 70 0;
#X connect 49 0 91 0;
#X connect 50 0 70 0;
#X connect 51 0 70 0;
#X connect 52 0 70 0;
#X connect 53 0 58 0;
#X connect 53 1 57 0;
#X connect 53 2 56 0;
#X connect 53 3 55 0;
#X connect 54 0 93 0;
#X connect 55 0 60 0;
#X connect 56 0 60 0;
#X connect 57 0 60 0;
#X connect 58 0 60 0;
#X connect 60 0 63 0;
#X connect 60 1 61 0;
#X connect 62 0 63 1;
#X connect 62 0 72 1;
#X connect 63 0 79 0;
#X connect 64 0 81 0;
#X connect 65 0 66 0;
#X connect 66 0 86 0;
#X connect 66 1 87 0;
#X connect 66 2 88 0;
#X connect 66 3 89 0;
#X connect 67 0 66 1;
#X connect 67 1 65 0;
#X connect 67 2 64 0;
#X connect 68 0 79 1;
#X connect 69 0 78 1;
#X connect 70 0 72 0;
#X connect 70 1 71 0;
#X connect 72 0 78 0;
#X connect 74 0 80 0;
#X connect 75 0 76 0;
#X connect 76 0 82 0;
#X connect 76 1 83 0;
#X connect 76 2 84 0;
#X connect 76 3 85 0;
#X connect 77 0 76 1;
#X connect 77 1 75 0;
#X connect 77 2 74 0;
#X connect 78 0 77 0;
#X connect 79 0 67 0;
#X connect 82 0 100 0;
#X connect 82 1 115 0;
#X connect 83 0 101 0;
#X connect 83 1 116 0;
#X connect 84 0 103 0;
#X connect 84 1 117 0;
#X connect 85 0 105 0;
#X connect 85 1 118 0;
#X connect 86 0 107 0;
#X connect 86 1 119 0;
#X connect 87 0 109 0;
#X connect 87 1 120 0;
#X connect 88 0 111 0;
#X connect 88 1 121 0;
#X connect 89 0 112 0;
#X connect 89 1 122 0;
#X connect 90 0 115 1;
#X connect 91 0 75 1;
#X connect 91 1 47 0;
#X connect 92 0 47 1;
#X connect 92 1 69 0;
#X connect 93 0 65 1;
#X connect 93 1 53 0;
#X connect 94 0 53 1;
#X connect 94 1 68 0;
#X connect 95 0 24 0;
#X connect 95 1 49 0;
#X connect 96 0 29 0;
#X connect 96 1 54 0;
#X connect 97 0 98 0;
#X connect 98 0 15 0;
#X connect 98 1 22 0;
#X connect 100 0 73 0;
#X connect 101 0 102 0;
#X connect 103 0 104 0;
#X connect 105 0 106 0;
#X connect 107 0 108 0;
#X connect 109 0 110 0;
#X connect 111 0 113 0;
#X connect 112 0 114 0;
#X coords 0 -1 1 1 240 100 1 100 100;
