#N canvas 286 148 1107 653 10;
#X obj 91 26 inlet;
#X obj 94 145 textfile;
#X obj 527 38 r ctl_open_param_file;
#X obj 95 179 print param;
#X obj 74 283 s osc;
#X obj 123 289 print;
#X obj 278 37 bng 15 250 50 0 empty empty empty 17 7 0 10 -262144 -1
-1;
#X msg 410 76 read \$1 cr;
#X obj 412 53 symbol \$1;
#X msg 10 127 print;
#X msg 153 52 rewind;
#X obj 153 27 inlet;
#X obj 334 380 s osc;
#X obj 419 407 print num;
#X obj 94 209 t a a a;
#X obj 574 380 s osc;
#X obj 659 407 print num;
#X msg 574 355 send /surface/\$1/cam/sampler/buffernum \$2;
#X obj 275 370 print pack;
#X obj 379 268 float \$2;
#X obj 370 301 print args;
#X obj 613 243 bng 15 250 50 0 empty empty empty 17 7 0 10 -262144
-1 -1;
#X obj 610 300 print args;
#X obj 619 267 float \$3;
#X obj 373 244 bng 15 250 50 0 empty empty empty 17 7 0 10 -262144
-1 -1;
#X obj 334 329 pack f f;
#X msg 334 355 send /surface/\$1/cam/sampler/num \$2;
#X obj 574 329 pack f f;
#X obj 595 87 r init_bang;
#X obj 600 114 t b b b;
#X obj 414 106 t b a;
#X obj 154 76 t b a;
#X msg 91 256 send /surface/\$1/cam/sampler/show 1;
#X connect 0 0 1 0;
#X connect 1 0 3 0;
#X connect 1 0 14 0;
#X connect 1 1 10 0;
#X connect 2 0 8 0;
#X connect 6 0 8 0;
#X connect 7 0 1 0;
#X connect 8 0 7 0;
#X connect 9 0 1 0;
#X connect 10 0 31 0;
#X connect 11 0 10 0;
#X connect 14 0 32 0;
#X connect 14 1 25 0;
#X connect 14 2 27 0;
#X connect 17 0 15 0;
#X connect 17 0 16 0;
#X connect 19 0 20 0;
#X connect 19 0 25 1;
#X connect 21 0 23 0;
#X connect 23 0 22 0;
#X connect 23 0 27 1;
#X connect 24 0 19 0;
#X connect 25 0 26 0;
#X connect 25 0 18 0;
#X connect 26 0 12 0;
#X connect 26 0 13 0;
#X connect 27 0 17 0;
#X connect 28 0 29 0;
#X connect 29 0 21 0;
#X connect 29 1 24 0;
#X connect 29 2 8 0;
#X connect 30 0 1 0;
#X connect 30 1 1 0;
#X connect 31 0 1 0;
#X connect 31 1 1 0;
#X connect 32 0 4 0;
#X connect 32 0 5 0;
